<mxfile host="app.diagrams.net" agent="Mozilla/5.0 (Windows NT 10.0; Win64; x64) AppleWebKit/537.36 (KHTML, like Gecko) Chrome/129.0.0.0 Safari/537.36" version="24.7.17">
  <diagram name="Página-1" id="efcDKt-GfpYt0_BvtWtM">
    <mxGraphModel dx="909" dy="969" grid="0" gridSize="10" guides="1" tooltips="1" connect="1" arrows="1" fold="1" page="0" pageScale="1" pageWidth="827" pageHeight="1169" math="0" shadow="0">
      <root>
        <mxCell id="0" />
        <mxCell id="1" parent="0" />
        <mxCell id="KP3jm4SqanhI5IPsudm_-20" style="rounded=0;orthogonalLoop=1;jettySize=auto;html=1;exitX=1;exitY=0.3333333333333333;exitDx=0;exitDy=0;exitPerimeter=0;entryX=0;entryY=0.5;entryDx=0;entryDy=0;" edge="1" parent="1" source="KP3jm4SqanhI5IPsudm_-1" target="KP3jm4SqanhI5IPsudm_-4">
          <mxGeometry relative="1" as="geometry" />
        </mxCell>
        <mxCell id="KP3jm4SqanhI5IPsudm_-21" style="rounded=0;orthogonalLoop=1;jettySize=auto;html=1;entryX=0;entryY=0.5;entryDx=0;entryDy=0;exitX=1;exitY=0.3333333333333333;exitDx=0;exitDy=0;exitPerimeter=0;" edge="1" parent="1" source="KP3jm4SqanhI5IPsudm_-1" target="KP3jm4SqanhI5IPsudm_-10">
          <mxGeometry relative="1" as="geometry">
            <mxPoint x="108" y="125" as="sourcePoint" />
          </mxGeometry>
        </mxCell>
        <mxCell id="KP3jm4SqanhI5IPsudm_-22" style="rounded=0;orthogonalLoop=1;jettySize=auto;html=1;exitX=1;exitY=0.3333333333333333;exitDx=0;exitDy=0;exitPerimeter=0;entryX=0;entryY=0.5;entryDx=0;entryDy=0;" edge="1" parent="1" source="KP3jm4SqanhI5IPsudm_-1" target="KP3jm4SqanhI5IPsudm_-11">
          <mxGeometry relative="1" as="geometry" />
        </mxCell>
        <mxCell id="KP3jm4SqanhI5IPsudm_-1" value="Professor" style="shape=umlActor;verticalLabelPosition=bottom;verticalAlign=top;html=1;fillColor=#d5e8d4;strokeColor=#82b366;" vertex="1" parent="1">
          <mxGeometry x="77" y="115" width="30" height="60" as="geometry" />
        </mxCell>
        <mxCell id="KP3jm4SqanhI5IPsudm_-4" value="Criar Sala de Aula" style="ellipse;whiteSpace=wrap;html=1;" vertex="1" parent="1">
          <mxGeometry x="239" y="-7" width="120" height="80" as="geometry" />
        </mxCell>
        <mxCell id="KP3jm4SqanhI5IPsudm_-16" style="rounded=0;orthogonalLoop=1;jettySize=auto;html=1;exitX=1;exitY=0.5;exitDx=0;exitDy=0;entryX=0;entryY=0.5;entryDx=0;entryDy=0;" edge="1" parent="1" source="KP3jm4SqanhI5IPsudm_-10" target="KP3jm4SqanhI5IPsudm_-14">
          <mxGeometry relative="1" as="geometry" />
        </mxCell>
        <mxCell id="KP3jm4SqanhI5IPsudm_-18" value="extends" style="edgeLabel;html=1;align=center;verticalAlign=middle;resizable=0;points=[];" vertex="1" connectable="0" parent="KP3jm4SqanhI5IPsudm_-16">
          <mxGeometry x="-0.0694" y="2" relative="1" as="geometry">
            <mxPoint as="offset" />
          </mxGeometry>
        </mxCell>
        <mxCell id="KP3jm4SqanhI5IPsudm_-10" value="Adicionar Conteúdo" style="ellipse;whiteSpace=wrap;html=1;" vertex="1" parent="1">
          <mxGeometry x="239" y="95" width="120" height="80" as="geometry" />
        </mxCell>
        <mxCell id="KP3jm4SqanhI5IPsudm_-11" value="Remover Conteúdo" style="ellipse;whiteSpace=wrap;html=1;" vertex="1" parent="1">
          <mxGeometry x="239" y="200" width="120" height="80" as="geometry" />
        </mxCell>
        <mxCell id="KP3jm4SqanhI5IPsudm_-14" value="Textual" style="ellipse;whiteSpace=wrap;html=1;" vertex="1" parent="1">
          <mxGeometry x="456" y="48.5" width="120" height="80" as="geometry" />
        </mxCell>
        <mxCell id="KP3jm4SqanhI5IPsudm_-15" value="Arquivos e Links da Internet" style="ellipse;whiteSpace=wrap;html=1;" vertex="1" parent="1">
          <mxGeometry x="456" y="141.5" width="120" height="80" as="geometry" />
        </mxCell>
        <mxCell id="KP3jm4SqanhI5IPsudm_-17" style="rounded=0;orthogonalLoop=1;jettySize=auto;html=1;exitX=1;exitY=0.5;exitDx=0;exitDy=0;entryX=0;entryY=0.6;entryDx=0;entryDy=0;entryPerimeter=0;" edge="1" parent="1" source="KP3jm4SqanhI5IPsudm_-10" target="KP3jm4SqanhI5IPsudm_-15">
          <mxGeometry relative="1" as="geometry" />
        </mxCell>
        <mxCell id="KP3jm4SqanhI5IPsudm_-19" value="extends" style="edgeLabel;html=1;align=center;verticalAlign=middle;resizable=0;points=[];" vertex="1" connectable="0" parent="KP3jm4SqanhI5IPsudm_-17">
          <mxGeometry x="0.127" relative="1" as="geometry">
            <mxPoint as="offset" />
          </mxGeometry>
        </mxCell>
        <mxCell id="KP3jm4SqanhI5IPsudm_-24" value="Estudante" style="shape=umlActor;verticalLabelPosition=bottom;verticalAlign=top;html=1;fillColor=#fff2cc;strokeColor=#d6b656;" vertex="1" parent="1">
          <mxGeometry x="910" y="115" width="30" height="60" as="geometry" />
        </mxCell>
        <mxCell id="KP3jm4SqanhI5IPsudm_-27" value="Acesso ao Conteúdo" style="ellipse;whiteSpace=wrap;html=1;" vertex="1" parent="1">
          <mxGeometry x="616" y="95" width="120" height="80" as="geometry" />
        </mxCell>
        <mxCell id="KP3jm4SqanhI5IPsudm_-28" value="Realizar comentário" style="ellipse;whiteSpace=wrap;html=1;" vertex="1" parent="1">
          <mxGeometry x="616" y="337" width="120" height="80" as="geometry" />
        </mxCell>
        <mxCell id="KP3jm4SqanhI5IPsudm_-29" value="Realizar Avaliação" style="ellipse;whiteSpace=wrap;html=1;" vertex="1" parent="1">
          <mxGeometry x="616" y="216" width="120" height="80" as="geometry" />
        </mxCell>
      </root>
    </mxGraphModel>
  </diagram>
</mxfile>
